<svg width="98" height="86" viewBox="0 -15 98 86" fill="none" xmlns="http://www.w3.org/2000/svg">
<g filter="url(#filter0_d_238_35)">
<path d="M55.1298 39.636C59.5475 37.7736 63.035 35.2385 65.5906 32.0297C68.1458 28.8216 69.4236 25.3279 69.4236 21.5486C69.4236 17.7691 68.1458 14.2752 65.5896 11.0669C63.0343 7.85871 59.5474 5.3233 55.1291 3.46041C50.7108 1.59781 45.9052 0.66687 40.7117 0.66687C35.5186 0.66687 30.713 1.59838 26.2944 3.46041C21.8763 5.32315 18.3892 7.85857 15.8338 11.0669C13.2781 14.2757 12 17.7691 12 21.5487C12 24.784 12.9667 27.8305 14.897 30.6853C16.8271 33.5396 19.4783 35.9463 22.8495 37.9036C22.5778 38.5567 22.2991 39.1541 22.0135 39.6986C21.7278 40.2423 21.3883 40.7653 20.9937 41.2687C20.5995 41.7722 20.2939 42.1662 20.0762 42.4507C19.8587 42.7361 19.5053 43.1381 19.0156 43.6538C18.526 44.1705 18.2132 44.5103 18.0775 44.673C18.0775 44.6457 18.0231 44.7073 17.9142 44.8569C17.8052 45.0064 17.7441 45.074 17.7306 45.0613C17.7169 45.0466 17.6625 45.1146 17.5674 45.2641C17.4722 45.4138 17.4245 45.4885 17.4245 45.4885L17.3224 45.6918C17.2821 45.7739 17.2544 45.8542 17.241 45.9364C17.2272 46.0174 17.2204 46.1064 17.2204 46.2012C17.2204 46.2961 17.2338 46.3841 17.2615 46.466C17.316 46.819 17.4722 47.104 17.7305 47.3226C17.9886 47.5397 18.267 47.6481 18.5665 47.6481H18.6889C20.0481 47.4578 21.2174 47.2404 22.1961 46.9954C26.3833 45.9084 30.1629 44.1675 33.5342 41.7751C35.9811 42.2102 38.3738 42.4276 40.7119 42.4276C45.9055 42.4294 50.7116 41.4988 55.1298 39.636Z" fill="url(#paint0_linear_238_35)"/>
<path d="M82.188 41.1446C84.1191 38.3035 85.0839 35.2526 85.0839 31.9895C85.0839 28.6448 84.0631 25.5162 82.0246 22.6072C79.9852 19.6985 77.2115 17.2782 73.7044 15.3478C74.3292 17.3868 74.6419 19.4531 74.6419 21.5471C74.6419 25.1902 73.7323 28.6432 71.9094 31.9063C70.0878 35.1684 67.4775 38.0502 64.079 40.5521C60.9249 42.8359 57.3358 44.5891 53.3115 45.813C49.2883 47.0361 45.0873 47.6484 40.7097 47.6484C39.8944 47.6484 38.6979 47.5945 37.1211 47.4859C42.5859 51.0742 49.0028 52.8692 56.3708 52.8692C58.7093 52.8692 61.1018 52.6512 63.549 52.2162C66.9203 54.6096 70.7 56.349 74.8869 57.4372C75.8657 57.6826 77.0349 57.8996 78.3944 58.0897C78.7205 58.117 79.0202 58.0217 79.2919 57.8042C79.5638 57.5868 79.7408 57.2885 79.8219 56.9082C79.8092 56.7449 79.8219 56.6554 79.8629 56.6424C79.903 56.6295 79.8962 56.5407 79.8423 56.3778C79.7886 56.2144 79.7612 56.1328 79.7612 56.1328L79.6595 55.9294C79.6312 55.8757 79.5852 55.8004 79.5168 55.7056C79.4488 55.6113 79.3946 55.5423 79.3535 55.5017C79.3135 55.4612 79.2528 55.3927 79.1707 55.2983C79.0895 55.204 79.0348 55.1423 79.0074 55.115C78.8715 54.9518 78.559 54.6121 78.0697 54.0953C77.5799 53.5791 77.2271 53.1782 77.0095 52.8928C76.7919 52.6072 76.486 52.2132 76.0918 51.7097C75.6979 51.2071 75.3576 50.6836 75.072 50.1396C74.7866 49.596 74.5079 48.9976 74.2361 48.3455C77.6076 46.3862 80.258 43.9867 82.188 41.1446Z" fill="url(#paint1_linear_238_35)"/>
</g>
<circle cx="28.7383" cy="23" r="4" fill="url(#paint2_radial_238_35)"/>
<circle cx="39.7383" cy="23" r="4" fill="url(#paint3_radial_238_35)"/>
<circle cx="50.7383" cy="23" r="4" fill="url(#paint4_radial_238_35)"/>
<defs>
<filter id="filter0_d_238_35" x="0" y="0.66687" width="97.084" height="84.4274" filterUnits="userSpaceOnUse" color-interpolation-filters="sRGB">
<feFlood flood-opacity="0" result="BackgroundImageFix"/>
<feColorMatrix in="SourceAlpha" type="matrix" values="0 0 0 0 0 0 0 0 0 0 0 0 0 0 0 0 0 0 127 0" result="hardAlpha"/>
<feOffset dy="15"/>
<feGaussianBlur stdDeviation="6"/>
<feColorMatrix type="matrix" values="0 0 0 0 0 0 0 0 0 0 0 0 0 0 0 0 0 0 0.06 0"/>
<feBlend mode="normal" in2="BackgroundImageFix" result="effect1_dropShadow_238_35"/>
<feBlend mode="normal" in="SourceGraphic" in2="effect1_dropShadow_238_35" result="shape"/>
</filter>
<linearGradient id="paint0_linear_238_35" x1="40.7118" y1="0.66687" x2="40.7118" y2="47.6481" gradientUnits="userSpaceOnUse">
<stop stop-color="white"/>
<stop offset="1" stop-color="#DFDFDF"/>
</linearGradient>
<linearGradient id="paint1_linear_238_35" x1="61.1025" y1="15.3478" x2="61.1025" y2="58.0943" gradientUnits="userSpaceOnUse">
<stop stop-color="white"/>
<stop offset="1" stop-color="#DFDFDF"/>
</linearGradient>
<radialGradient id="paint2_radial_238_35" cx="0" cy="0" r="1" gradientUnits="userSpaceOnUse" gradientTransform="translate(25.7383 19.5) rotate(49.7636) scale(8.51469)">
<stop stop-color="#ACACAC"/>
<stop offset="1" stop-color="#ACACAC" stop-opacity="0"/>
</radialGradient>
<radialGradient id="paint3_radial_238_35" cx="0" cy="0" r="1" gradientUnits="userSpaceOnUse" gradientTransform="translate(36.7383 19.5) rotate(49.7636) scale(8.51469)">
<stop stop-color="#ACACAC"/>
<stop offset="1" stop-color="#ACACAC" stop-opacity="0"/>
</radialGradient>
<radialGradient id="paint4_radial_238_35" cx="0" cy="0" r="1" gradientUnits="userSpaceOnUse" gradientTransform="translate(47.7383 19.5) rotate(49.7636) scale(8.51469)">
<stop stop-color="#ACACAC"/>
<stop offset="1" stop-color="#ACACAC" stop-opacity="0"/>
</radialGradient>
</defs>
</svg>
