<svg width="95" height="89" viewBox="0 -15 95 89" fill="none" xmlns="http://www.w3.org/2000/svg">
<g filter="url(#filter0_d_219_320)">
<path d="M59.3816 26H41.1124C40.1603 26 39.326 25.3319 39.0749 24.3685C38.8239 23.405 39.2183 22.3845 40.0379 21.8763C47.9977 16.942 52.1323 11.1862 52.6777 4.27996C52.8678 1.88317 54.9027 -0.0313135 57.2127 0.000388088C59.5698 0.0399045 61.778 1.03106 63.4318 2.79161C65.087 4.55377 65.9992 6.88731 66 9.3621C66 9.36239 66 9.36269 66 9.36299V10.1075C66 16.1529 64.2931 20.0075 61.1438 25.0057C60.7524 25.6267 60.0908 26 59.3816 26Z" fill="url(#paint0_linear_219_320)"/>
<path d="M83 27.7288C83 24.0186 80.0045 21 76.3223 21H41.9767C41.5951 21 41.2204 21.1032 40.8921 21.2989C38.4812 22.7354 36.0468 23.9178 34.0908 24.8683C33.4085 25.1996 32.7641 25.5127 32.178 25.808C31.4561 26.1718 31 26.9153 31 27.7288V55.2166C31 56.0301 31.4561 56.7736 32.178 57.1375C40.7893 61.4754 47.9474 62 56.2946 62C57.5872 62 58.9092 61.9874 60.2686 61.9746C61.7721 61.9603 63.3265 61.9454 64.9562 61.9454H71.6936C75.3756 61.9454 78.3712 58.927 78.3712 55.2166C78.3712 53.9691 78.0327 52.7999 77.4431 51.7972C79.3617 50.6137 80.6445 48.4821 80.6445 46.054C80.6445 44.8065 80.306 43.6373 79.7163 42.6345C81.6349 41.4511 82.9177 39.3194 82.9177 36.8913C82.9177 35.1462 82.2551 33.5542 81.1701 32.3574C82.3516 31.1026 83 29.466 83 27.7288Z" fill="url(#paint1_linear_219_320)"/>
<path d="M25 50.234V62H22V50.234C22 49.0009 22.672 48 23.5 48C24.328 48 25 49.0009 25 50.234Z" fill="#73C3FF"/>
<path d="M25 50.234V62H22V50.234C22 49.0009 22.672 48 23.5 48C24.328 48 25 49.0009 25 50.234Z" fill="#73C3FF"/>
<path d="M32.8165 21H14.1835C12.9783 21 12 21.9628 12 23.1489V59.8239C12 61.0115 12.9783 61.9728 14.1835 62H28.1582C30.8352 61.9728 33.157 60.4528 34.2795 58.2437C34.7409 57.3397 35 56.3182 35 55.2395V23.1489C35 21.9626 34.0217 21 32.8165 21Z" fill="url(#paint2_linear_219_320)"/>
<path d="M25 50.2105V62H22V50.2105C22 48.9904 22.672 48 23.5 48C24.328 48 25 48.9904 25 50.2105Z" fill="url(#paint3_linear_219_320)"/>
</g>
<defs>
<filter id="filter0_d_219_320" x="0" y="0" width="95" height="89" filterUnits="userSpaceOnUse" color-interpolation-filters="sRGB">
<feFlood flood-opacity="0" result="BackgroundImageFix"/>
<feColorMatrix in="SourceAlpha" type="matrix" values="0 0 0 0 0 0 0 0 0 0 0 0 0 0 0 0 0 0 127 0" result="hardAlpha"/>
<feOffset dy="15"/>
<feGaussianBlur stdDeviation="6"/>
<feColorMatrix type="matrix" values="0 0 0 0 0 0 0 0 0 0 0 0 0 0 0 0 0 0 0.06 0"/>
<feBlend mode="normal" in2="BackgroundImageFix" result="effect1_dropShadow_219_320"/>
<feBlend mode="normal" in="SourceGraphic" in2="effect1_dropShadow_219_320" result="shape"/>
</filter>
<linearGradient id="paint0_linear_219_320" x1="92.5" y1="-5.5" x2="42" y2="26" gradientUnits="userSpaceOnUse">
<stop stop-color="#EDEDED"/>
<stop offset="1" stop-color="#F6F6F6"/>
</linearGradient>
<linearGradient id="paint1_linear_219_320" x1="90" y1="20.5" x2="18" y2="92.5" gradientUnits="userSpaceOnUse">
<stop stop-color="white"/>
<stop offset="1" stop-color="#CBCBCB"/>
</linearGradient>
<linearGradient id="paint2_linear_219_320" x1="44.5" y1="27" x2="2.5" y2="27" gradientUnits="userSpaceOnUse">
<stop stop-color="white"/>
<stop offset="1" stop-color="#F5F5F5"/>
</linearGradient>
<linearGradient id="paint3_linear_219_320" x1="27" y1="53" x2="8.5" y2="53" gradientUnits="userSpaceOnUse">
<stop stop-color="#DADADA"/>
<stop offset="1" stop-color="#DBDBDB" stop-opacity="0"/>
<stop offset="1" stop-color="#D9D9D9" stop-opacity="0.184572"/>
</linearGradient>
</defs>
</svg>
