<svg width="110" height="118" viewBox="0 -5 110 118" fill="none" xmlns="http://www.w3.org/2000/svg">
<g filter="url(#filter0_d_220_35)">
<path d="M70 74.1999V63H40V74.1999L55 87L70 74.1999Z" fill="white"/>
<path d="M91.1375 79.1661L71.6242 74.7466C71.3294 74.6799 71.0584 74.5666 70.8048 74.4292L55.0002 83.3033L39.8119 74C39.4187 74.3563 38.9307 74.6211 38.3763 74.7468L18.8631 79.1662C16.0137 79.8116 14 82.2588 14 85.0763V96.9643C14 98.641 15.412 100 17.1538 100H92.8462C94.5882 100 96 98.6409 96 96.9643V85.0763C96.0004 82.2587 93.9867 79.8112 91.1375 79.1661Z" fill="#EFF2FA"/>
<path d="M40 63.0002V73.615C58.896 79.4859 70 64.7925 70 64.7925V63H40V63.0002Z" fill="#D6D6D6"/>
<path d="M35 27L36.3406 56.4417C36.4658 59.1921 37.8168 61.7427 40.0233 63.3946L46.3845 68.1571C47.9824 69.3532 49.9257 70 51.923 70H58.077C60.0743 70 62.0176 69.3533 63.6155 68.1571L69.9767 63.3946C72.1832 61.7426 73.5342 59.1922 73.6594 56.4417L75 27C74.9998 27 35 27 35 27Z" fill="white"/>
<path d="M50.404 33.1429C56.5657 33.1429 65.8079 31.6072 68 27H35L36.3423 56.4417C36.4676 59.1921 37.8204 61.7426 40.0298 63.3946L46.3989 68.1571C47.9988 69.3532 49.9445 70 51.9444 70H55.0251C51.9444 70 45.7827 63.8571 45.7827 56.1786C45.7827 52.4232 45.7827 42.3572 45.7827 37.75C45.7827 36.2143 47.3231 33.1429 50.404 33.1429Z" fill="url(#paint0_linear_220_35)"/>
<path d="M26.2354 89.9837L15.4355 81C14.5306 82.0611 14 83.3964 14 84.8259V96.9133C14 98.6182 15.4924 100 17.3333 100H29V95.7244C28.9998 93.5342 27.9948 91.4471 26.2354 89.9837Z" fill="#E4EAF6"/>
<path d="M83.7646 89.9837L94.5645 81C95.4694 82.0611 96 83.3964 96 84.8259V96.9133C96 98.6182 94.5076 100 92.6667 100H81V95.7244C81 93.5342 82.005 91.4471 83.7646 89.9837Z" fill="#E4EAF6"/>
<path d="M59 100H51L52 87H58L59 100Z" fill="#B0B0B0"/>
<path d="M59 83H51V86.1367C51 87.1659 51.8008 88 52.7888 88H57.211C58.199 88 58.9998 87.1659 58.9998 86.1367V83H59Z" fill="#969696"/>
<path d="M40.5275 70.3848L55 82.7147C55 82.7147 50.9469 84.6516 45.9453 88.5554C44.9135 89.3606 43.3528 89.0344 42.7995 87.882L36 73.7219L38.151 70.6677C38.6863 69.907 39.8099 69.7736 40.5275 70.3848Z" fill="#E4EAF6"/>
<path d="M69.4725 70.3848L55 82.7147C55 82.7147 59.0531 84.6516 64.0547 88.5554C65.0865 89.3606 66.6472 89.0344 67.2005 87.882L74 73.7219L71.849 70.6677C71.3135 69.907 70.19 69.7736 69.4725 70.3848Z" fill="#E4EAF6"/>
<path d="M64 15.9819L65.5168 26.4531C72.441 27.8058 73.4389 38.4206 73.5826 41.4523C73.6086 42.0026 73.7884 42.5338 74.094 42.9967L76.7359 47C76.7359 47 75.8317 40.3814 79.9719 35.9362C79.9721 35.9362 81.3937 9.65965 64 15.9819Z" fill="#DBDBDB"/>
<path d="M78.8938 46.8605L76.9873 53.6341C76.7614 54.437 75.9494 55 75.0175 55C73.9933 55 73.1297 54.3228 73.0027 53.4203L72.0275 46.4922C71.7666 44.6378 73.3943 43 75.4985 43H75.5C77.7759 43.0002 79.4458 44.8995 78.8938 46.8605Z" fill="white"/>
<path d="M36.2699 13.9868L38.5592 15.5443C28.2087 23.1553 30.1432 36.2097 30.1432 36.2097C33.2387 39.2926 33.2387 47 33.2387 47L36.3341 43.9171C36.3341 43.9171 35.1395 35.0114 40.9773 31.5853C46.3944 28.4061 51.1344 30.0439 55.9711 30.0439C68.9334 30.0439 72.561 25.1786 71.9323 19.2536C71.6068 16.1878 66.9004 9.80164 54.9071 10.0047C50.0671 10.0866 40.9776 11.5462 36.2699 13.9868Z" fill="#C9C9C9"/>
<path d="M35.4431 28.3781C35.4431 28.3781 33.7752 21.8115 38.6806 15C28.1833 22.7427 30.1453 36.023 30.1453 36.023C33.2846 39.1592 33.2846 47 33.2846 47L36.4239 43.8638C36.4239 43.8638 35.2124 34.8039 41.133 31.3186C46.6269 28.0843 51.4341 29.7505 56.3394 29.7505C58.4774 29.7505 60.3405 29.6075 62 29.3623C51.876 29.7013 45.908 22.0401 35.4431 28.3781Z" fill="#A8A8A8"/>
<path d="M31.1062 46.8605L33.0127 53.6341C33.2386 54.437 34.0506 55 34.9825 55C36.0067 55 36.8703 54.3228 36.9973 53.4203L37.9725 46.4922C38.2334 44.6378 36.6057 43 34.5015 43H34.5C32.2241 43.0002 30.5542 44.8995 31.1062 46.8605Z" fill="#EFEFEF"/>
<path d="M75.4445 97H64.5555C63.6964 97 63 97.6716 63 98.5V100H77V98.5C77 97.6717 76.3034 97 75.4445 97Z" fill="#E4EAF6"/>
</g>
<defs>
<filter id="filter0_d_220_35" x="0" y="0" width="110" height="118" filterUnits="userSpaceOnUse" color-interpolation-filters="sRGB">
<feFlood flood-opacity="0" result="BackgroundImageFix"/>
<feColorMatrix in="SourceAlpha" type="matrix" values="0 0 0 0 0 0 0 0 0 0 0 0 0 0 0 0 0 0 127 0" result="hardAlpha"/>
<feOffset dy="4"/>
<feGaussianBlur stdDeviation="7"/>
<feColorMatrix type="matrix" values="0 0 0 0 0 0 0 0 0 0 0 0 0 0 0 0 0 0 0.05 0"/>
<feBlend mode="normal" in2="BackgroundImageFix" result="effect1_dropShadow_220_35"/>
<feBlend mode="normal" in="SourceGraphic" in2="effect1_dropShadow_220_35" result="shape"/>
</filter>
<linearGradient id="paint0_linear_220_35" x1="33.02" y1="55.2188" x2="54.14" y2="55.2188" gradientUnits="userSpaceOnUse">
<stop stop-color="#EBEBEB"/>
<stop offset="1" stop-color="#EBEBEB" stop-opacity="0"/>
</linearGradient>
</defs>
</svg>
